<svg xmlns="http://www.w3.org/2000/svg" xmlns:xlink="http://www.w3.org/1999/xlink" role="img" viewBox="0 0 559.9 598.3" xml:space="preserve"><!-- Generator: WPGraphicator version: 1.5.1 --><style type="text/css">.wpgraphicator-path-wpwo8re984uygudpjwsb path {animation-name: wpgraphicator-path-wpwo8re984uygudpjwsb;animation-delay: 0s;animation-duration: 1.8s;animation-iteration-count: infinite;animation-fill-mode: both;}.wpgraphicator-path-92ey0jhhrv20apf3r8m7 path {animation-name: wpgraphicator-path-92ey0jhhrv20apf3r8m7;animation-delay: 0s;animation-duration: 1.8s;animation-iteration-count: infinite;animation-fill-mode: both;}.wpgraphicator-path-92ey0jhhrv20apf3r8m7-top {animation-name: wpgraphicator-path-92ey0jhhrv20apf3r8m7-top;animation-delay: 0s;animation-duration: 1.8s;animation-iteration-count: infinite;animation-fill-mode: both;}@keyframes wpgraphicator-path-92ey0jhhrv20apf3r8m7-top {0% {animation-timing-function: cubic-bezier(0.65, 0, 0.35, 1);transform: translateY(299.15000000000003px);}38.888888888888886% {animation-timing-function: cubic-bezier(0.65, 0, 0.35, 1);transform: translateY(317.15px);}100% {animation-timing-function: cubic-bezier(0.65, 0, 0.35, 1);transform: translateY(299.15px);}}@keyframes wpgraphicator-path-wpwo8re984uygudpjwsb{}@keyframes wpgraphicator-path-92ey0jhhrv20apf3r8m7{0% {}100% {}}</style><g class="wpgraphicator-path-wpwo8re984uygudpjwsb-top" style="transform:translateY(299.15px)"><g class="wpgraphicator-path-wpwo8re984uygudpjwsb-left" style="transform:translateX(279.95px)"><g class="wpgraphicator-path-wpwo8re984uygudpjwsb-angle" style="transform:rotate(0deg)"><g class="wpgraphicator-path-wpwo8re984uygudpjwsb-scaleY" style="transform:scaleY(1)"><g class="wpgraphicator-path-wpwo8re984uygudpjwsb-scaleX" style="transform:scaleX(1)"><g class="wpgraphicator-path-wpwo8re984uygudpjwsb-skewY" style="transform:skewY(0deg)"><g class="wpgraphicator-path-wpwo8re984uygudpjwsb-skewX" style="transform:skewX(0deg)"><g class="wpgraphicator-path-wpwo8re984uygudpjwsb"><path d="M 501.08 62.71 C 462.72 23.18 411.66 0.93 357.28 0.03 C 356.14 0 355.02 0 353.9 0 C 333.76 0 313.76 2.94 294.45 8.74 C 289.71 10.16 284.84 10.89 279.95 10.89 C 275.06 10.89 270.18 10.16 265.44 8.74 C 246.84 3.13 227.49 0.19 207.94 0 L 206.04 0 C 150.8 0 98.87 21.83 59.8 61.49 C 21.24 100.63 0 152.33 0 207.08 L 0 557.19 C 0 579.86 18.44 598.3 41.11 598.3 L 518.79 598.3 C 541.46 598.3 559.9 579.86 559.9 557.19 L 559.9 207.08 C 559.9 153.11 539.01 101.85 501.08 62.71 Z M 509.97 526.13 C 509.97 538.41 500.02 548.37 487.73 548.37 L 72.17 548.37 C 59.88 548.37 49.93 538.41 49.93 526.13 L 49.93 207.08 C 49.93 165.53 66.06 126.27 95.37 96.52 C 124.96 66.48 164.27 49.93 206.04 49.93 L 207.46 49.93 C 222.26 50.07 236.92 52.28 251.05 56.54 C 260.46 59.39 270.17 60.81 279.95 60.81 C 289.73 60.81 299.46 59.37 308.85 56.54 C 323.47 52.14 338.62 49.93 353.9 49.93 C 354.69 49.93 355.47 49.93 356.27 49.94 C 397.41 50.57 436.12 67.44 465.25 97.48 C 494.1 127.23 509.97 166.15 509.97 207.08 L 509.97 526.13 Z" stroke="#000000" stroke-opacity="1" stroke-width="0" stroke-dasharray="none" stroke-dashoffset="0" stroke-linecap="butt" stroke-linejoin="miter" stroke-miterlimit="4" fill="#fff" fill-opacity="1" fill-rule="nonzero" opacity="1" transform=" translate(-279.95, -299.15)"></path></g></g></g></g></g></g></g></g><g class="wpgraphicator-path-92ey0jhhrv20apf3r8m7-top" style="transform:translateY(299.15px)"><g class="wpgraphicator-path-92ey0jhhrv20apf3r8m7-left" style="transform:translateX(279.95px)"><g class="wpgraphicator-path-92ey0jhhrv20apf3r8m7-angle" style="transform:rotate(0deg)"><g class="wpgraphicator-path-92ey0jhhrv20apf3r8m7-scaleY" style="transform:scaleY(1)"><g class="wpgraphicator-path-92ey0jhhrv20apf3r8m7-scaleX" style="transform:scaleX(1)"><g class="wpgraphicator-path-92ey0jhhrv20apf3r8m7-skewY" style="transform:skewY(0deg)"><g class="wpgraphicator-path-92ey0jhhrv20apf3r8m7-skewX" style="transform:skewX(0deg)"><g class="wpgraphicator-path-92ey0jhhrv20apf3r8m7"><path d="M 442.96 119.11 C 419.58 95.01 388.58 81.47 355.69 81 C 355.08 80.98 354.49 80.98 353.9 80.98 C 341.63 80.98 329.49 82.77 317.81 86.28 C 305.5 89.99 292.76 91.87 279.95 91.87 C 267.14 91.87 254.4 89.99 242.1 86.28 C 230.8 82.88 219.04 81.09 207.18 80.98 L 206.05 80.98 C 172.66 80.98 141.21 94.25 117.5 118.32 C 93.95 142.22 80.99 173.74 80.99 207.08 L 80.99 493.38 C 80.99 506.6 91.7 517.32 104.92 517.32 L 454.98 517.32 C 468.2 517.32 478.91 506.6 478.91 493.38 L 478.91 207.08 C 478.91 174.25 466.15 143.02 442.96 119.11 Z M 322.87 216.37 C 326.78 212.46 331.91 210.51 337.03 210.51 C 342.15 210.51 347.28 212.46 351.19 216.37 L 371.54 236.73 L 391.89 216.37 C 399.71 208.55 412.39 208.55 420.21 216.37 C 428.03 224.19 428.03 236.87 420.21 244.69 L 399.86 265.04 L 420.21 285.39 C 428.03 293.21 428.03 305.89 420.21 313.71 C 416.3 317.62 411.17 319.57 406.05 319.57 C 400.93 319.57 395.8 317.62 391.89 313.71 L 371.54 293.36 L 351.19 313.71 C 343.37 321.53 330.69 321.53 322.87 313.71 C 318.96 309.8 317.01 304.67 317.01 299.55 C 317.01 294.43 318.96 289.3 322.87 285.39 L 343.23 265.04 L 322.87 244.69 C 315.05 236.87 315.05 224.19 322.87 216.37 Z M 139.69 216.37 C 143.6 212.46 148.73 210.51 153.85 210.51 C 158.97 210.51 164.1 212.46 168.01 216.37 L 188.36 236.73 L 208.71 216.37 C 216.53 208.55 229.21 208.55 237.03 216.37 C 244.85 224.19 244.85 236.87 237.03 244.69 L 216.67 265.04 L 237.03 285.39 C 244.85 293.21 244.85 305.89 237.03 313.71 C 233.12 317.62 227.99 319.57 222.87 319.57 C 217.75 319.57 212.62 317.62 208.71 313.71 L 188.36 293.36 L 168.01 313.71 C 160.19 321.53 147.51 321.53 139.69 313.71 C 135.78 309.8 133.83 304.67 133.83 299.55 C 133.83 294.43 135.78 289.3 139.69 285.39 L 160.04 265.04 L 139.69 244.69 C 131.87 236.87 131.87 224.19 139.69 216.37 Z M 421.66 399.46 C 415.89 407.02 408.32 414.02 399.04 420.29 L 399.04 466.13 C 399.04 481.32 386.73 493.63 371.54 493.63 C 356.35 493.63 344.04 481.32 344.04 466.13 L 344.04 443.58 C 324.22 448.51 302.41 451.11 279.95 451.11 C 241.25 451.11 204.5 443.39 176.47 429.37 C 159.85 421.06 146.97 410.91 138.24 399.46 C 126.5 384.06 137.83 361.83 157.2 361.83 C 160.83 361.83 164.38 362.65 167.57 364.19 C 170.76 365.73 173.59 368 175.79 370.89 C 180.03 376.46 187.67 382.3 197.54 387.24 C 218.84 397.89 248.88 404 279.95 404 C 311.02 404 341.06 397.89 362.36 387.24 C 372.23 382.3 379.87 376.46 384.11 370.89 C 388.51 365.11 395.44 361.83 402.7 361.83 C 416.65 361.83 426.43 373.35 426.43 385.56 C 426.43 390.3 424.95 395.15 421.66 399.46 Z" stroke="#000000" stroke-opacity="1" stroke-width="0" stroke-dasharray="none" stroke-dashoffset="0" stroke-linecap="butt" stroke-linejoin="miter" stroke-miterlimit="4" fill="#fff" fill-opacity="1" fill-rule="nonzero" opacity="1" transform=" translate(-279.95, -299.15)"></path></g></g></g></g></g></g></g></g></svg>