<?xml version="1.0" encoding="UTF-8"?>
<svg id="Camada_1" data-name="Camada 1" xmlns="http://www.w3.org/2000/svg" viewBox="0 0 559.9 598.3">
  <defs>
    <style>
      .cls-1 {
        fill: #c81530;
      }
    </style>
  </defs>
  <path class="cls-1" d="m501.08,62.71C462.72,23.18,411.66.93,357.28.03c-1.14-.03-2.26-.03-3.38-.03-20.14,0-40.14,2.94-59.45,8.74-4.74,1.42-9.61,2.15-14.5,2.15s-9.77-.73-14.51-2.15C246.84,3.13,227.49.19,207.94,0h-1.9c-55.24,0-107.17,21.83-146.24,61.49C21.24,100.63,0,152.33,0,207.08v350.11c0,22.67,18.44,41.11,41.11,41.11h477.68c22.67,0,41.11-18.44,41.11-41.11V207.08c0-53.97-20.89-105.23-58.82-144.37Zm8.89,463.42c0,12.28-9.95,22.24-22.24,22.24H72.17c-12.29,0-22.24-9.96-22.24-22.24V207.08c0-41.55,16.13-80.81,45.44-110.56,29.59-30.04,68.9-46.59,110.67-46.59h1.42c14.8.14,29.46,2.35,43.59,6.61,9.41,2.85,19.12,4.27,28.9,4.27s19.51-1.44,28.9-4.27c14.62-4.4,29.77-6.61,45.05-6.61.79,0,1.57,0,2.37.01,41.14.63,79.85,17.5,108.98,47.54,28.85,29.75,44.72,68.67,44.72,109.6v319.05Z"/>
  <path class="cls-1" d="m478.91,207.08v286.3c0,13.22-10.71,23.94-23.93,23.94H104.92c-13.22,0-23.93-10.72-23.93-23.94V207.08c0-33.34,12.96-64.86,36.51-88.76,23.71-24.07,55.16-37.34,88.55-37.34h1.13c11.86.11,23.62,1.9,34.92,5.3,12.3,3.71,25.05,5.59,37.85,5.59s25.55-1.88,37.86-5.59c11.68-3.51,23.82-5.3,36.09-5.3.59,0,1.18,0,1.79.02,32.89.47,63.89,14.01,87.27,38.11,23.19,23.91,35.95,55.14,35.95,87.97Z"/>
</svg>